<?xml version="1.0" encoding="utf-8"?>
<!-- Generator: Adobe Illustrator 15.1.0, SVG Export Plug-In . SVG Version: 6.00 Build 0)  -->
<!DOCTYPE svg PUBLIC "-//W3C//DTD SVG 1.0//EN" "http://www.w3.org/TR/2001/REC-SVG-20010904/DTD/svg10.dtd">
<svg version="1.0" id="Layer_1" xmlns="http://www.w3.org/2000/svg" xmlns:xlink="http://www.w3.org/1999/xlink" x="0px" y="0px"
	 width="333.334px" height="250px" viewBox="0 0 333.334 250" enable-background="new 0 0 333.334 250" xml:space="preserve">
<g>
	<path fill-rule="evenodd" clip-rule="evenodd" fill="#ED1C24" d="M105.768,175.003c22.753,0,41.203,8.1,41.203,18.091
		c0,9.991-18.45,18.09-41.203,18.09c-22.753,0-41.205-8.099-41.205-18.09C64.563,183.103,83.015,175.003,105.768,175.003
		 M100.129,171.971c31.615,0,57.252,10.873,57.252,24.286c0,13.412-25.638,24.285-57.252,24.285s-57.25-10.873-57.25-24.285
		C42.878,182.843,68.514,171.971,100.129,171.971z"/>
	<path fill-rule="evenodd" clip-rule="evenodd" fill="#2E3192" d="M58.385,136.754c13.181-7.405,43.897,0.471,68.593,17.591
		c24.697,17.119,34.034,37.006,20.853,44.41c-13.181,7.406-43.897-0.471-68.595-17.59C54.542,164.047,45.204,144.159,58.385,136.754
		 M37.677,124.267c17.877-10.059,57.51-0.589,88.503,21.144c30.99,21.735,41.626,47.518,23.747,57.578
		c-17.877,10.059-57.509,0.591-88.502-21.143C30.433,160.111,19.799,134.327,37.677,124.267z"/>
	<path fill-rule="evenodd" clip-rule="evenodd" fill="#00904C" d="M91.735,84.83c17.157,0,42.113,24.085,55.729,53.783
		c13.616,29.698,10.743,53.78-6.414,53.78c-17.158,0-41.317-24.082-54.932-53.78C72.5,108.916,74.578,84.83,91.735,84.83
		 M71.096,58.566c24.153,0,57.341,31.047,78.263,72.644c20.921,41.595,14.815,73.444-14.522,69.989
		c-29.335-3.456-58.011-31.936-75.611-71.315C41.627,90.5,46.941,58.566,71.096,58.566z"/>
	<path fill-rule="evenodd" clip-rule="evenodd" fill="#FDB913" d="M145.441,38.282c16.946,0,30.692,34.421,30.692,76.864
		c0,42.439-13.746,76.856-30.692,76.856c-16.947,0-30.691-34.417-30.691-76.856C114.75,72.703,128.494,38.282,145.441,38.282
		 M138.718,0c25.143,0,45.538,46.887,45.538,104.703s-20.395,104.702-45.538,104.702c-25.144,0-45.536-46.886-45.536-104.702
		S113.575,0,138.718,0z"/>
	<g>
		<defs>
			<path id="SVGID_1_" d="M89.072,248.017c-4.359-33.064,0.82-63.22,20.537-91.503c35.146-50.418,87.353-68.444,109.148-130.69
				c9.942,1.729,19.883,3.458,29.826,5.187C223.439,137.942,80.808,123.188,89.072,248.017"/>
		</defs>
		<clipPath id="SVGID_2_">
			<use xlink:href="#SVGID_1_"  overflow="visible"/>
		</clipPath>
		
			<linearGradient id="SVGID_3_" gradientUnits="userSpaceOnUse" x1="66.121" y1="223.722" x2="266.899" y2="46.564">
			<stop  offset="0" style="stop-color:#BCBEC0"/>
			<stop  offset="0.83" style="stop-color:#DEDFE0"/>
			<stop  offset="1" style="stop-color:#FFFFFF"/>
		</linearGradient>
		<polygon clip-path="url(#SVGID_2_)" fill="url(#SVGID_3_)" points="154.25,331.252 358.815,150.752 175.141,-57.412 
			-29.424,123.086 		"/>
	</g>
	<g>
		<defs>
			<path id="SVGID_4_" d="M96.854,230.292c-0.843-25.668,5.738-47.683,24.756-61.457c37.729-27.322,103.395-37.793,119.625-60.878
				c13.832,2.017,27.665,4.034,41.499,6.051c-54.684,47.943-86.15,35.975-124.7,48.039
				C129.118,171.095,103.468,189.158,96.854,230.292"/>
		</defs>
		<clipPath id="SVGID_5_">
			<use xlink:href="#SVGID_4_"  overflow="visible"/>
		</clipPath>
		
			<linearGradient id="SVGID_6_" gradientUnits="userSpaceOnUse" x1="115.027" y1="234.780" x2="264.335" y2="103.037">
			<stop  offset="0" style="stop-color:#BCBEC0"/>
			<stop  offset="0.83" style="stop-color:#DEDFE0"/>
			<stop  offset="1" style="stop-color:#FFFFFF"/>
		</linearGradient>
		<polygon clip-path="url(#SVGID_5_)" fill="url(#SVGID_6_)" points="177.749,322.927 343.425,176.741 200.997,15.322 
			35.32,161.509 		"/>
	</g>
	<path fill-rule="evenodd" clip-rule="evenodd" fill="#2E3192" d="M120.068,206.161c-12.085-1.736-25.69-6.1-38.906-12.634v-11.059
		c12.599,8.389,26.574,14.388,38.906,17.226V206.161z"/>
	<path fill-rule="evenodd" clip-rule="evenodd" fill="#00904C" d="M114.163,194.674c-16.326-8.358-31.617-23.855-43.901-43.825
		h22.229c9.539,16.275,21.849,29.711,33.391,36.586v7.238H114.163z"/>
	<path fill-rule="evenodd" clip-rule="evenodd" fill="#FDB913" d="M115.756,195.119c-10.598-14.265-18.466-38.093-21.359-66.334
		h20.837c1.776,24.826,8.317,45.519,17.166,55.941v10.393H115.756z"/>
	<path fill-rule="evenodd" clip-rule="evenodd" fill="#ED1C24" d="M109.782,220.195c-3.139,0.227-6.362,0.347-9.653,0.347
		c-6.481,0-12.711-0.459-18.521-1.301v-11.494c6.789,2.162,15.134,3.438,24.161,3.438c1.354,0,2.693-0.029,4.014-0.086V220.195z"/>
	<path d="M269.087,222.641v-43.763h8.834v19.431l17.852-19.431h11.882l-16.479,17.047l17.374,26.716h-11.432l-12.024-20.542
		l-7.173,7.317v13.225H269.087z M223.409,208.406l8.6-0.847c0.509,2.895,1.56,5.014,3.149,6.371
		c1.579,1.343,3.708,2.027,6.398,2.027c2.842,0,4.993-0.601,6.428-1.814c1.447-1.202,2.171-2.609,2.171-4.218
		c0-1.04-0.306-1.915-0.917-2.639c-0.601-0.735-1.66-1.366-3.179-1.896c-1.03-0.368-3.394-0.998-7.072-1.917
		c-4.738-1.172-8.06-2.618-9.964-4.33c-2.69-2.404-4.034-5.339-4.034-8.803c0-2.232,0.632-4.311,1.895-6.257
		c1.263-1.934,3.087-3.413,5.461-4.431c2.385-1.009,5.247-1.519,8.61-1.519c5.501,0,9.629,1.203,12.41,3.606
		c2.772,2.416,4.229,5.626,4.371,9.65l-8.834,0.388c-0.377-2.253-1.191-3.872-2.436-4.851c-1.242-0.989-3.107-1.477-5.593-1.477
		c-2.567,0-4.584,0.519-6.031,1.58c-0.938,0.671-1.407,1.578-1.407,2.71c0,1.039,0.438,1.925,1.314,2.658
		c1.11,0.938,3.821,1.916,8.121,2.925c4.299,1.018,7.478,2.068,9.537,3.149c2.059,1.088,3.669,2.567,4.841,4.451
		c1.16,1.886,1.74,4.208,1.74,6.97c0,2.506-0.691,4.86-2.089,7.041c-1.395,2.191-3.361,3.82-5.909,4.881
		c-2.547,1.069-5.726,1.6-9.527,1.6c-5.532,0-9.781-1.274-12.747-3.833C225.752,217.027,223.979,213.298,223.409,208.406z
		 M179.064,222.641v-43.763h8.835v19.431l17.851-19.431h11.881l-16.477,17.047l17.373,26.716h-11.433l-12.022-20.542l-7.174,7.317
		v13.225H179.064z"/>
	<path d="M324.571,238.086h6.637c-0.088-0.998-0.345-1.75-0.761-2.247c-0.642-0.775-1.475-1.165-2.495-1.165
		c-0.926,0-1.703,0.308-2.334,0.927C324.988,236.222,324.639,237.05,324.571,238.086 M331.185,241.345l2.081,0.256
		c-0.327,1.218-0.936,2.163-1.822,2.836c-0.889,0.668-2.025,1.005-3.404,1.005c-1.739,0-3.118-0.536-4.135-1.605
		c-1.02-1.07-1.528-2.572-1.528-4.505c0-2.002,0.516-3.555,1.544-4.657c1.031-1.106,2.366-1.659,4.009-1.659
		c1.59,0,2.889,0.542,3.894,1.624c1.008,1.083,1.512,2.606,1.512,4.566c0,0.122-0.002,0.302-0.012,0.539h-8.864
		c0.074,1.306,0.444,2.308,1.108,3c0.665,0.695,1.49,1.043,2.483,1.043c0.737,0,1.368-0.194,1.893-0.585
		C330.467,242.816,330.879,242.198,331.185,241.345z M306.181,239.019c0,1.558,0.309,2.698,0.931,3.411
		c0.619,0.72,1.395,1.074,2.327,1.074c0.925,0,1.702-0.354,2.328-1.064c0.626-0.716,0.938-1.83,0.938-3.356
		c0-1.457-0.32-2.553-0.965-3.29c-0.646-0.737-1.427-1.109-2.335-1.109c-0.896,0-1.656,0.365-2.286,1.093
		C306.494,236.504,306.181,237.585,306.181,239.019z M304.514,246.161l1.961,0.289c0.08,0.604,0.309,1.044,0.679,1.323
		c0.501,0.37,1.186,0.559,2.049,0.559c0.937,0,1.654-0.188,2.162-0.559c0.509-0.375,0.848-0.898,1.028-1.567
		c0.108-0.413,0.153-1.271,0.145-2.586c-0.879,1.035-1.976,1.555-3.289,1.555c-1.635,0-2.899-0.588-3.795-1.77
		c-0.894-1.176-1.344-2.593-1.344-4.24c0-1.135,0.207-2.183,0.615-3.141c0.412-0.959,1.008-1.701,1.788-2.225
		c0.778-0.52,1.695-0.782,2.746-0.782c1.403,0,2.562,0.569,3.47,1.704v-1.434h1.861v10.274c0,1.85-0.191,3.164-0.565,3.936
		c-0.379,0.772-0.976,1.384-1.793,1.83c-0.817,0.448-1.822,0.673-3.02,0.673c-1.416,0-2.563-0.32-3.433-0.958
		C304.904,248.403,304.484,247.445,304.514,246.161z M288.061,239.24c0,1.526,0.32,2.664,0.964,3.416
		c0.642,0.753,1.397,1.132,2.272,1.132c0.881,0,1.629-0.363,2.243-1.083c0.615-0.718,0.925-1.818,0.925-3.297
		c0-1.628-0.313-2.82-0.939-3.581c-0.627-0.763-1.397-1.143-2.32-1.143c-0.893,0-1.642,0.368-2.241,1.097
		C288.363,236.512,288.061,237.666,288.061,239.24z M294.432,245.174v-1.502c-0.754,1.181-1.862,1.771-3.325,1.771
		c-0.948,0-1.818-0.261-2.614-0.784c-0.794-0.519-1.41-1.25-1.849-2.189c-0.437-0.935-0.654-2.01-0.654-3.229
		c0-1.185,0.2-2.261,0.595-3.228c0.396-0.967,0.988-1.708,1.778-2.221c0.791-0.515,1.678-0.775,2.656-0.775
		c0.715,0,1.354,0.152,1.91,0.455c0.562,0.301,1.017,0.694,1.368,1.18v-5.889h2.002v16.412H294.432z M270.077,238.086h6.637
		c-0.088-0.998-0.344-1.75-0.76-2.247c-0.642-0.775-1.476-1.165-2.495-1.165c-0.924,0-1.704,0.308-2.336,0.927
		C270.493,236.222,270.146,237.05,270.077,238.086z M276.69,241.345l2.084,0.256c-0.328,1.218-0.938,2.163-1.824,2.836
		c-0.889,0.668-2.023,1.005-3.403,1.005c-1.739,0-3.117-0.536-4.135-1.605c-1.02-1.07-1.527-2.572-1.527-4.505
		c0-2.002,0.515-3.555,1.543-4.657c1.031-1.106,2.365-1.659,4.008-1.659c1.59,0,2.889,0.542,3.895,1.624
		c1.007,1.083,1.514,2.606,1.514,4.566c0,0.122-0.005,0.302-0.012,0.539h-8.866c0.073,1.306,0.443,2.308,1.109,3
		c0.666,0.695,1.491,1.043,2.482,1.043c0.739,0,1.37-0.194,1.894-0.585C275.971,242.816,276.386,242.198,276.69,241.345z
		 M258.003,245.174v-16.412h2.013v16.412H258.003z M238.271,245.174l-3.637-11.888h2.082l1.892,6.863l0.704,2.552
		c0.031-0.13,0.238-0.948,0.616-2.453l1.891-6.962h2.072l1.778,6.894l0.598,2.273l0.679-2.297l2.038-6.871h1.96l-3.718,11.888
		h-2.091l-1.891-7.119l-0.462-2.028l-2.403,9.147H238.271z M219.233,239.229c0,1.525,0.332,2.663,0.996,3.419
		c0.666,0.761,1.502,1.14,2.507,1.14c1.002,0,1.833-0.383,2.5-1.144c0.66-0.759,0.992-1.92,0.992-3.479c0-1.472-0.332-2.586-1-3.344
		c-0.669-0.756-1.498-1.136-2.492-1.136c-1.005,0-1.841,0.379-2.507,1.132C219.565,236.569,219.233,237.708,219.233,239.229z
		 M217.162,239.229c0-2.2,0.611-3.833,1.837-4.891c1.021-0.879,2.266-1.322,3.737-1.322c1.635,0,2.973,0.535,4.008,1.609
		c1.04,1.069,1.555,2.548,1.555,4.435c0,1.533-0.229,2.737-0.688,3.611c-0.459,0.879-1.126,1.559-2.002,2.044
		c-0.877,0.485-1.834,0.727-2.873,0.727c-1.662,0-3.007-0.531-4.036-1.602C217.673,242.775,217.162,241.238,217.162,239.229z
		 M199.749,245.174v-11.888h1.813v1.689c0.875-1.308,2.135-1.96,3.781-1.96c0.72,0,1.376,0.13,1.977,0.386
		c0.604,0.259,1.051,0.595,1.349,1.015c0.301,0.417,0.507,0.914,0.63,1.487c0.073,0.375,0.111,1.028,0.111,1.96v7.309h-2.017v-7.233
		c0-0.817-0.077-1.433-0.234-1.841c-0.156-0.405-0.436-0.73-0.833-0.972c-0.401-0.244-0.867-0.366-1.406-0.366
		c-0.86,0-1.597,0.275-2.225,0.818c-0.623,0.545-0.932,1.579-0.932,3.103v6.492H199.749z M182.88,245.174v-16.412h2.018v9.359
		l4.769-4.834h2.605l-4.543,4.41l5.005,7.478h-2.486l-3.927-6.079l-1.422,1.368v4.711H182.88z M146.577,245.174v-11.888h1.8v1.666
		c0.375-0.581,0.87-1.05,1.49-1.401c0.619-0.357,1.326-0.535,2.117-0.535c0.877,0,1.6,0.183,2.162,0.55
		c0.566,0.367,0.963,0.875,1.193,1.533c0.944-1.388,2.167-2.083,3.671-2.083c1.182,0,2.087,0.328,2.722,0.981
		c0.634,0.653,0.951,1.659,0.951,3.015v8.162h-2.002v-7.489c0-0.806-0.064-1.387-0.195-1.742c-0.133-0.351-0.37-0.638-0.711-0.855
		c-0.344-0.215-0.749-0.325-1.211-0.325c-0.836,0-1.528,0.279-2.083,0.837c-0.55,0.553-0.83,1.444-0.83,2.667v6.908h-2.012v-7.722
		c0-0.898-0.166-1.571-0.493-2.018c-0.33-0.447-0.863-0.672-1.612-0.672c-0.566,0-1.09,0.149-1.571,0.451
		c-0.481,0.298-0.833,0.734-1.047,1.306c-0.218,0.578-0.325,1.407-0.325,2.488v6.167H146.577z M129.731,239.229
		c0,1.525,0.332,2.663,0.998,3.419c0.664,0.761,1.501,1.14,2.506,1.14c1.002,0,1.834-0.383,2.5-1.144
		c0.661-0.759,0.992-1.92,0.992-3.479c0-1.472-0.331-2.586-1-3.344c-0.67-0.756-1.499-1.136-2.492-1.136
		c-1.005,0-1.842,0.379-2.506,1.132C130.063,236.569,129.731,237.708,129.731,239.229z M127.66,239.229
		c0-2.2,0.611-3.833,1.837-4.891c1.021-0.879,2.266-1.322,3.738-1.322c1.637,0,2.972,0.535,4.009,1.609
		c1.038,1.069,1.554,2.548,1.554,4.435c0,1.533-0.229,2.737-0.688,3.611c-0.458,0.879-1.126,1.559-2.002,2.044
		c-0.877,0.485-1.834,0.727-2.873,0.727c-1.662,0-3.006-0.531-4.035-1.602C128.172,242.775,127.66,241.238,127.66,239.229z
		 M115.342,245.174v-11.888h1.811v1.801c0.46-0.841,0.889-1.399,1.283-1.666c0.391-0.268,0.822-0.405,1.292-0.405
		c0.681,0,1.369,0.218,2.071,0.649l-0.695,1.872c-0.49-0.294-0.983-0.439-1.476-0.439c-0.443,0-0.837,0.133-1.188,0.396
		c-0.351,0.268-0.6,0.635-0.749,1.105c-0.225,0.715-0.336,1.497-0.336,2.35v6.224H115.342z M104.058,245.174v-10.321h-1.777v-1.566
		h1.777v-1.264c0-0.799,0.073-1.394,0.213-1.781c0.196-0.522,0.535-0.947,1.024-1.271c0.488-0.325,1.173-0.486,2.056-0.486
		c0.564,0,1.192,0.065,1.88,0.203l-0.303,1.758c-0.416-0.076-0.813-0.114-1.188-0.114c-0.611,0-1.043,0.13-1.296,0.394
		c-0.254,0.259-0.38,0.749-0.38,1.467v1.096h2.314v1.566h-2.314v10.321H104.058z M78.726,245.174v-11.888h1.811v1.801
		c0.462-0.841,0.889-1.399,1.282-1.666c0.391-0.268,0.823-0.405,1.292-0.405c0.68,0,1.369,0.218,2.071,0.649l-0.695,1.872
		c-0.49-0.294-0.983-0.439-1.476-0.439c-0.443,0-0.835,0.133-1.188,0.396c-0.351,0.268-0.599,0.635-0.749,1.105
		c-0.225,0.715-0.336,1.497-0.336,2.35v6.224H78.726z M62.105,238.086h6.638c-0.089-0.998-0.346-1.75-0.762-2.247
		c-0.642-0.775-1.475-1.165-2.494-1.165c-0.924,0-1.706,0.308-2.334,0.927C62.521,236.222,62.173,237.05,62.105,238.086z
		 M68.719,241.345l2.082,0.256c-0.328,1.218-0.936,2.163-1.823,2.836c-0.889,0.668-2.024,1.005-3.404,1.005
		c-1.739,0-3.118-0.536-4.135-1.605c-1.019-1.07-1.529-2.572-1.529-4.505c0-2.002,0.517-3.555,1.545-4.657
		c1.031-1.106,2.365-1.659,4.008-1.659c1.59,0,2.889,0.542,3.894,1.624c1.008,1.083,1.513,2.606,1.513,4.566
		c0,0.122-0.004,0.302-0.012,0.539h-8.864c0.073,1.306,0.443,2.308,1.108,3c0.664,0.695,1.489,1.043,2.484,1.043
		c0.737,0,1.367-0.194,1.891-0.585C68.001,242.816,68.414,242.198,68.719,241.345z M40.807,245.174l-3.638-11.888h2.083l1.892,6.863
		l0.702,2.552c0.032-0.13,0.239-0.948,0.616-2.453l1.891-6.962h2.071l1.78,6.894l0.597,2.273l0.68-2.297l2.036-6.871h1.96
		l-3.719,11.888H47.67l-1.891-7.119l-0.464-2.028l-2.403,9.147H40.807z M21.768,239.229c0,1.525,0.332,2.663,0.996,3.419
		c0.666,0.761,1.504,1.14,2.507,1.14c1.002,0,1.834-0.383,2.5-1.144c0.66-0.759,0.992-1.92,0.992-3.479c0-1.472-0.332-2.586-1-3.344
		c-0.67-0.756-1.498-1.136-2.492-1.136c-1.003,0-1.841,0.379-2.507,1.132C22.1,236.569,21.768,237.708,21.768,239.229z
		 M19.696,239.229c0-2.2,0.611-3.833,1.839-4.891c1.019-0.879,2.264-1.322,3.736-1.322c1.635,0,2.974,0.535,4.008,1.609
		c1.04,1.069,1.555,2.548,1.555,4.435c0,1.533-0.228,2.737-0.688,3.611c-0.458,0.879-1.126,1.559-2.002,2.044
		c-0.877,0.485-1.834,0.727-2.873,0.727c-1.662,0-3.006-0.531-4.034-1.602C20.208,242.775,19.696,241.238,19.696,239.229z
		 M2.17,236.566h4.245c1.403,0,2.4-0.261,2.988-0.785c0.588-0.523,0.884-1.256,0.884-2.204c0-0.688-0.172-1.276-0.521-1.766
		c-0.348-0.488-0.802-0.809-1.372-0.967c-0.366-0.095-1.038-0.145-2.024-0.145H2.17V236.566z M0,245.174v-16.412h6.189
		c1.088,0,1.922,0.054,2.495,0.158c0.806,0.133,1.482,0.389,2.029,0.767c0.543,0.374,0.981,0.906,1.313,1.583
		c0.334,0.68,0.498,1.426,0.498,2.24c0,1.395-0.443,2.579-1.33,3.545c-0.891,0.962-2.496,1.448-4.814,1.448H2.17v6.672H0z"/>
</g>
</svg>
